<?xml version="1.0" encoding="UTF-8"?>
<svg width="3802px" height="753px" viewBox="0 0 3802 753" version="1.1" xmlns="http://www.w3.org/2000/svg" xmlns:xlink="http://www.w3.org/1999/xlink">
    <!-- Generator: Sketch 57.1 (83088) - https://sketch.com -->
    <title>Artboard</title>
    <desc>Created with Sketch.</desc>
    <g id="Artboard" stroke="none" stroke-width="1" fill="none" fill-rule="evenodd">
        <g id="2662781" transform="translate(-29.000000, 60.000000)">
            <polyline id="Fill-1" fill="#C1D6F2" points="1625.042 150.406 1608.084 150.406 1608.084 167.364 1593.246 167.364 1593.246 150.406 1576.288 150.406 1576.288 135.568 1593.246 135.568 1593.246 118.61 1608.084 118.61 1608.084 135.568 1625.042 135.568 1625.042 150.406"></polyline>
            <polyline id="Fill-2" fill="#C1D6F2" points="1916.284 158.406 1899.328 158.406 1899.328 175.364 1884.49 175.364 1884.49 158.406 1867.532 158.406 1867.532 143.568 1884.49 143.568 1884.49 126.61 1899.328 126.61 1899.328 143.568 1916.284 143.568 1916.284 158.406"></polyline>
            <polyline id="Fill-3" fill="#C1D6F2" points="2219.708 82.406 2202.752 82.406 2202.752 99.364 2187.914 99.364 2187.914 82.406 2170.954 82.406 2170.954 67.568 2187.914 67.568 2187.914 50.61 2202.752 50.61 2202.752 67.568 2219.708 67.568 2219.708 82.406"></polyline>
            <polyline id="Fill-4" fill="#C1D6F2" points="1625.042 427.738 1608.084 427.738 1608.084 444.698 1593.246 444.698 1593.246 427.738 1576.288 427.738 1576.288 412.9 1593.246 412.9 1593.246 395.944 1608.084 395.944 1608.084 412.9 1625.042 412.9 1625.042 427.738"></polyline>
            <path d="M2248.202,442.164 C2248.202,436.652 2252.762,432.096 2258.272,432.096 C2263.784,432.096 2268.342,436.652 2268.342,442.164 C2268.342,447.676 2263.784,452.232 2258.272,452.232 C2252.762,452.232 2248.202,447.676 2248.202,442.164 Z M2266.752,397.754 C2266.752,394.048 2264.314,391.61 2258.908,391.61 C2253.078,391.61 2249.582,395.53 2247.46,400.512 L2232.836,392.138 C2237.498,381.222 2247.778,375.074 2259.544,375.074 C2271.626,375.074 2283.708,382.492 2283.708,396.272 C2283.708,412.062 2266.752,416.94 2266.752,424.252 L2249.792,424.252 C2249.792,411.852 2266.752,407.082 2266.752,397.754 L2266.752,397.754 Z" id="Fill-5" fill="#C1D6F2"></path>
            <path d="M1680.202,92.832 C1680.202,87.32 1684.76,82.764 1690.272,82.764 C1695.784,82.764 1700.34,87.32 1700.34,92.832 C1700.34,98.344 1695.784,102.9 1690.272,102.9 C1684.76,102.9 1680.202,98.344 1680.202,92.832 Z M1698.75,48.422 C1698.75,44.714 1696.314,42.276 1690.908,42.276 C1685.078,42.276 1681.58,46.196 1679.46,51.178 L1664.834,42.806 C1669.498,31.888 1679.778,25.742 1691.544,25.742 C1703.626,25.742 1715.708,33.16 1715.708,46.938 C1715.708,62.73 1698.75,67.606 1698.75,74.92 L1681.792,74.92 C1681.792,62.518 1698.75,57.75 1698.75,48.422 L1698.75,48.422 Z" id="Fill-6" fill="#C1D6F2"></path>
            <path d="M2281.536,67.498 C2281.536,61.986 2286.094,57.43 2291.606,57.43 C2297.116,57.43 2301.674,61.986 2301.674,67.498 C2301.674,73.01 2297.116,77.566 2291.606,77.566 C2286.094,77.566 2281.536,73.01 2281.536,67.498 Z M2300.084,23.088 C2300.084,19.38 2297.646,16.942 2292.242,16.942 C2286.412,16.942 2282.914,20.862 2280.794,25.844 L2266.168,17.472 C2270.832,6.554 2281.112,0.408 2292.876,0.408 C2304.958,0.408 2317.04,7.826 2317.04,21.604 C2317.04,37.396 2300.084,42.272 2300.084,49.586 L2283.126,49.586 C2283.126,37.184 2300.084,32.416 2300.084,23.088 L2300.084,23.088 Z" id="Fill-7" fill="#C1D6F2"></path>
            <path d="M2305.002,153.414 L2295.25,153.414 L2293.768,161.894 L2303.518,161.894 L2305.002,153.414 Z M2317.084,153.414 L2315.6,161.894 L2326.834,161.894 L2325.032,173.552 L2313.692,173.552 L2311.042,189.45 L2298.96,189.45 L2301.61,173.552 L2291.86,173.552 L2289.208,189.45 L2277.126,189.45 L2279.778,173.552 L2268.542,173.552 L2270.448,161.894 L2281.684,161.894 L2283.168,153.414 L2271.828,153.414 L2273.736,141.756 L2285.076,141.756 L2287.726,125.858 L2299.808,125.858 L2297.158,141.756 L2306.908,141.756 L2309.558,125.858 L2321.64,125.858 L2318.992,141.756 L2330.12,141.756 L2328.212,153.414 L2317.084,153.414 L2317.084,153.414 Z" id="Fill-8" fill="#C1D6F2"></path>
            <path d="M1997.364,109.414 L1987.612,109.414 L1986.128,117.894 L1995.88,117.894 L1997.364,109.414 Z M2009.446,109.414 L2007.962,117.894 L2019.196,117.894 L2017.396,129.552 L2006.054,129.552 L2003.406,145.45 L1991.322,145.45 L1993.972,129.552 L1984.222,129.552 L1981.572,145.45 L1969.49,145.45 L1972.138,129.552 L1960.904,129.552 L1962.812,117.894 L1974.046,117.894 L1975.53,109.414 L1964.19,109.414 L1966.098,97.756 L1977.44,97.756 L1980.088,81.858 L1992.17,81.858 L1989.522,97.756 L1999.272,97.756 L2001.922,81.858 L2014.004,81.858 L2011.356,97.756 L2022.484,97.756 L2020.576,109.414 L2009.446,109.414 L2009.446,109.414 Z" id="Fill-9" fill="#C1D6F2"></path>
            <path d="M1569.002,520.08 L1559.25,520.08 L1557.768,528.56 L1567.518,528.56 L1569.002,520.08 Z M1581.084,520.08 L1579.6,528.56 L1590.834,528.56 L1589.034,540.22 L1577.692,540.22 L1575.044,556.116 L1562.96,556.116 L1565.61,540.22 L1555.86,540.22 L1553.21,556.116 L1541.128,556.116 L1543.778,540.22 L1532.542,540.22 L1534.45,528.56 L1545.684,528.56 L1547.168,520.08 L1535.828,520.08 L1537.736,508.422 L1549.076,508.422 L1551.726,492.524 L1563.808,492.524 L1561.158,508.422 L1570.908,508.422 L1573.56,492.524 L1585.642,492.524 L1582.992,508.422 L1594.122,508.422 L1592.214,520.08 L1581.084,520.08 L1581.084,520.08 Z" id="Fill-10" fill="#C1D6F2"></path>
            <path d="M2327.67,520.08 L2317.918,520.08 L2316.434,528.56 L2326.186,528.56 L2327.67,520.08 Z M2339.752,520.08 L2338.268,528.56 L2349.502,528.56 L2347.7,540.22 L2336.36,540.22 L2333.71,556.116 L2321.626,556.116 L2324.278,540.22 L2314.528,540.22 L2311.876,556.116 L2299.794,556.116 L2302.444,540.22 L2291.208,540.22 L2293.116,528.56 L2304.352,528.56 L2305.836,520.08 L2294.494,520.08 L2296.402,508.422 L2307.744,508.422 L2310.392,492.524 L2322.474,492.524 L2319.826,508.422 L2329.576,508.422 L2332.226,492.524 L2344.308,492.524 L2341.66,508.422 L2352.788,508.422 L2350.88,520.08 L2339.752,520.08 L2339.752,520.08 Z" id="Fill-11" fill="#C1D6F2"></path>
            <path d="M2130.946,453.09 C2129.732,454.874 2126.274,454.644 2124.534,454.322 C2122.368,453.918 2120.458,452.492 2118.804,451.208 C2113.54,447.118 2108.284,443.086 2103.452,438.4 C2101.056,436.074 2098.046,434.218 2096.138,431.522 C2095.716,430.926 2095.848,428.614 2095.844,427.87 C2095.838,426.68 2097.194,426.79 2098.172,426.844 C2103.67,427.152 2108.518,430.326 2112.99,433.226 C2114.7,434.336 2116.168,435.736 2117.886,436.87 C2120.508,438.6 2123.164,440.354 2125.496,442.446 C2127.304,444.07 2129.042,446.27 2130.232,448.392 C2130.824,449.448 2131.652,450.914 2131.424,452.226 C2131.278,453.066 2130.764,453.568 2130.946,453.09" id="Fill-12" fill="#EBA76C"></path>
            <path d="M2097.408,433.724 C2096.114,432.764 2095.846,431.046 2095.508,429.588 C2094.384,424.766 2094.098,419.732 2093.624,414.766 C2093.236,410.698 2093.784,406.528 2093.016,402.416 C2092.294,398.574 2090.498,394.86 2090.132,390.924 C2089.934,388.758 2089.93,385.326 2091.102,383.024 C2091.572,382.098 2092.83,381.928 2093.53,382.696 C2093.874,383.068 2094.18,383.464 2094.368,383.816 C2094.836,384.698 2094.84,386.22 2095.146,387.246 C2095.734,389.222 2096.672,391.268 2097.074,393.248 C2097.398,392.386 2097.282,390.756 2097.206,389.34 C2097.184,388.906 2097.796,388.792 2097.932,389.206 C2098.548,391.096 2099.088,393.43 2099.276,394.938 C2099.518,396.884 2098.462,399.446 2098.644,401.414 C2098.966,404.89 2100.374,407.42 2101.25,410.81 C2102.69,416.396 2105.304,422.402 2104.696,428.296 C2104.546,429.772 2104.918,432.27 2103.66,433.37 C2102.774,434.146 2098.724,434.7 2097.408,433.724" id="Fill-13" fill="#EBA76C"></path>
            <path d="M2137.37,444.5 C2136.206,443.488 2134.19,443.538 2132.642,443.03 C2130.608,442.362 2128.482,441.476 2126.668,440.356 C2125.69,439.752 2124.77,439.094 2123.758,438.598 C2122.736,438.1 2121.61,437.81 2120.662,437.152 C2119.822,436.572 2119.232,435.696 2118.288,436.364 C2117.434,436.97 2116.776,437.872 2115.956,438.556 C2114.492,439.778 2113.07,441.146 2112.258,442.896 C2111.674,444.148 2111.562,445.456 2111.102,446.704 C2112.21,447.372 2113.082,448.368 2114.196,449.036 C2115.662,449.918 2117.118,450.728 2118.404,451.886 C2119.418,452.798 2120.252,453.902 2121.044,454.986 C2122.394,456.832 2122.128,458.41 2121.998,460.592 C2121.782,464.144 2120.788,467.7 2120.782,471.254 C2121.384,470.866 2121.902,470.216 2122.526,469.794 C2123.504,469.134 2124.716,468.808 2125.582,467.984 C2127.336,466.312 2127.462,463.35 2127.976,461.138 C2128.858,457.336 2130.13,453.646 2132.86,450.754 C2134.072,449.468 2134.966,448.314 2135.85,446.762 C2136.3,445.972 2136.808,445.012 2137.334,444.34 C2137.206,444.688 2137.042,445.02 2137.37,444.5" id="Fill-14" fill="#C4DFF8"></path>
            <path d="M1703.386,378.828 C1703.446,378.346 1703.512,377.868 1703.59,377.394 C1704.234,373.532 1704.662,369.618 1706.104,365.946 C1706.75,364.3 1707.586,362.724 1708.096,361.03 C1708.606,359.336 1708.764,357.456 1708.056,355.836 C1706.91,357.376 1706.168,359.212 1705.922,361.114 C1705.882,356.958 1706.128,352.796 1706.66,348.672 C1706.35,348.464 1705.934,348.612 1705.598,348.776 C1703.936,349.59 1702.43,350.724 1701.186,352.092 C1700.588,352.752 1700.042,353.48 1699.74,354.318 C1699.418,355.22 1699.394,356.198 1699.446,357.154 C1699.59,359.82 1700.762,362.86 1699.888,365.382 C1699.47,366.584 1699.534,367.31 1698.492,369.336 C1696.93,372.38 1695.388,375.432 1693.844,378.484 C1692.106,381.916 1688.05,390.03 1689.87,394.092 C1690.882,396.348 1692.354,397.442 1694.8,397.098 C1697.264,396.752 1698.526,394.59 1699.624,392.358 C1701.268,389.022 1702.946,382.444 1703.386,378.828" id="Fill-15" fill="#EBA76C"></path>
            <path d="M1692.298,436.416 C1692.938,435.31 1693.258,434.06 1693.566,432.82 C1696.56,420.746 1698.874,408.36 1698.136,395.778 C1698.056,394.42 1697.932,393.028 1697.318,391.762 C1696.702,390.494 1695.494,389.36 1694.032,389.132 C1692.576,388.902 1691.162,389.614 1690.272,390.632 C1689.382,391.646 1688.92,392.932 1688.494,394.196 C1684.842,405.04 1682.604,416.402 1682.478,427.954 C1682.448,430.662 1682.59,433.55 1684.228,435.898 C1685.142,437.21 1686.884,438.692 1688.624,438.844 C1690.28,438.988 1691.588,437.644 1692.298,436.416" id="Fill-16" fill="#EBA76C"></path>
            <path d="M1694.698,434.754 C1695.47,433.348 1695.938,431.802 1696.4,430.266 C1696.764,429.054 1697.13,427.84 1697.496,426.626 C1697.826,425.528 1698.158,424.426 1698.392,423.304 C1698.622,422.198 1698.758,421.074 1698.894,419.952 C1699.126,418.034 1699.356,416.114 1699.588,414.194 C1693.058,411.718 1685.698,411.484 1679.026,413.546 C1678.832,416.6 1678.856,419.666 1679.098,422.718 C1679.336,425.702 1679.794,428.718 1681.044,431.438 C1682.27,434.108 1684.652,436.778 1687.246,438.234 C1690.106,439.84 1693.382,437.152 1694.698,434.754" id="Fill-17" fill="#9EBEE6"></path>
            <g id="Group-21" transform="translate(0.000000, 214.000000)">
                <path d="M0,314.56 C103.62831,379.52 189.439796,413 257.434457,415 C359.426449,418 488.225559,387.374638 535,375.53373 C667.008098,342.116 843.714683,436.539527 993.684719,415 C1143.65476,393.460473 1120.8807,385.86485 1218.19672,379.074128 C1315.51275,372.283406 1427.298,407.73 1471.796,406.728 C1579.254,404.308 1671.146,375.534 1671.146,375.534" id="Stroke-18" stroke="#C1D6F2" stroke-width="13.676"></path>
                <path d="M1568.908,67.388 C1475.216,67.388 1411.232,7.974 1320.968,1.118 C1230.704,-5.738 1092.45,99.382 969.052,115.378 C845.654,131.374 746.255423,10.116 552.008,10.116 C357.760577,10.116 329.603963,138.196 0,1.118" id="Stroke-20" stroke="#2065BF" stroke-width="27.354"></path>
            </g>
            <path d="M1756.702,284.96 L1763.148,165.988 C1763.148,165.988 1729.3,165.988 1708.732,165.988 C1676.17,165.988 1661.458,225.116 1629.038,242.398 C1602.07,256.77 1578.478,257.076 1564.768,257.076 C1551.056,257.076 1550.056,282.244 1550.056,282.244 C1550.056,282.244 1551.056,307.414 1564.768,307.414 C1578.478,307.414 1602.07,307.72 1629.038,322.092 C1661.458,339.374 1676.17,398.502 1708.732,398.502 C1729.3,398.502 1763.148,398.502 1763.148,398.502 L1756.236,284.954 L1756.702,284.96" id="Fill-22" fill="#57A9F2"></path>
            <path d="M1826.562,282.244 C1826.562,241.51 1820.78,204.856 1811.566,179.324 L1811.566,142.564 L1780.286,142.564 C1754.73,142.564 1734.012,205.102 1734.012,282.244 C1734.012,359.39 1754.73,421.926 1780.286,421.926 L1811.566,421.926 L1811.566,385.166 C1820.78,359.634 1826.562,322.98 1826.562,282.244" id="Fill-23" fill="#3A7FD8"></path>
            <path d="M1855.696,282.244 C1855.696,359.39 1834.98,421.926 1809.422,421.926 C1783.866,421.926 1763.148,359.39 1763.148,282.244 C1763.148,205.102 1783.866,142.564 1809.422,142.564 C1834.98,142.564 1855.696,205.102 1855.696,282.244" id="Fill-24" fill="#BADCF2"></path>
            <path d="M1815.422,230.4 C1815.422,240.4 1812.736,248.508 1809.422,248.508 C1806.11,248.508 1803.424,240.4 1803.424,230.4 C1803.424,220.4 1806.11,212.294 1809.422,212.294 C1812.736,212.294 1815.422,220.4 1815.422,230.4" id="Fill-25" fill="#2065BF"></path>
            <polygon id="Fill-26" fill="#2065BF" points="1809.422 248.508 1908.4 248.508 1908.4 212.294 1809.422 212.294"></polygon>
            <path d="M1929.506,230.4 C1929.506,240.4 1921.398,248.508 1911.398,248.508 C1901.398,248.508 1893.292,240.4 1893.292,230.4 C1893.292,220.4 1901.398,212.294 1911.398,212.294 C1921.398,212.294 1929.506,220.4 1929.506,230.4" id="Fill-27" fill="#2065BF"></path>
            <path d="M1815.422,334.09 C1815.422,344.09 1812.736,352.196 1809.422,352.196 C1806.11,352.196 1803.424,344.09 1803.424,334.09 C1803.424,324.09 1806.11,315.982 1809.422,315.982 C1812.736,315.982 1815.422,324.09 1815.422,334.09" id="Fill-28" fill="#2065BF"></path>
            <polygon id="Fill-29" fill="#2065BF" points="1809.422 352.196 1908.4 352.196 1908.4 315.982 1809.422 315.982"></polygon>
            <path d="M1929.506,334.09 C1929.506,344.09 1921.398,352.196 1911.398,352.196 C1901.398,352.196 1893.292,344.09 1893.292,334.09 C1893.292,324.09 1901.398,315.982 1911.398,315.982 C1921.398,315.982 1929.506,324.09 1929.506,334.09" id="Fill-30" fill="#2065BF"></path>
            <g id="Group-34" transform="translate(2205.000000, 210.000000)">
                <path d="M0.764,392.486 C43.094,387.934 163.191885,408.581903 201.518,410.728 C318.224521,417.263062 398.209373,395.996108 444.062622,383.074128 C489.915872,370.152147 609.455153,314.32 719.479208,346.116 C882.822573,393.320819 1028.06353,359.454031 1138,302.29 C1211.29098,264.180646 1383.29098,273.585398 1654,330.504256" id="Stroke-31" stroke="#C1D6F2" stroke-width="13.676"></path>
                <path d="M88.456,71.388 C182.148,71.388 272.018,130.946 362.282,124.09 C452.544,117.234 612.506,36.54 735.906,52.536 C859.304,68.532 985.523019,95.8082034 1122.52995,37.4175004 C1249.90646,-16.8688332 1427.06315,-11.8293333 1654,52.536" id="Stroke-33" stroke="#2065BF" stroke-width="27.354"></path>
            </g>
            <path d="M2297.6,257.076 C2283.888,257.076 2260.294,256.77 2233.328,242.398 C2200.908,225.116 2186.196,165.988 2153.632,165.988 C2133.066,165.988 2099.218,165.988 2099.218,165.988 L2106.53,279.24 L2105.682,279.228 L2099.218,398.502 C2099.218,398.502 2133.066,398.502 2153.632,398.502 C2186.196,398.502 2200.908,339.374 2233.328,322.092 C2260.294,307.72 2283.888,307.414 2297.6,307.414 C2311.31,307.414 2312.31,282.244 2312.31,282.244 C2312.31,282.244 2311.31,257.076 2297.6,257.076" id="Fill-35" fill="#57A9F2"></path>
            <path d="M2035.804,282.244 C2035.804,241.51 2041.586,204.856 2050.8,179.324 L2050.8,142.564 L2082.08,142.564 C2107.636,142.564 2128.354,205.102 2128.354,282.244 C2128.354,359.39 2107.636,421.926 2082.08,421.926 L2050.8,421.926 L2050.8,385.166 C2041.586,359.634 2035.804,322.98 2035.804,282.244" id="Fill-36" fill="#3A7FD8"></path>
            <path d="M2006.668,282.244 C2006.668,359.39 2027.386,421.926 2052.944,421.926 C2078.5,421.926 2099.218,359.39 2099.218,282.244 C2099.218,205.102 2078.5,142.564 2052.944,142.564 C2027.386,142.564 2006.668,205.102 2006.668,282.244" id="Fill-37" fill="#57A9F2"></path>
            <path d="M2046.946,230.4 C2046.946,240.4 2049.63,248.508 2052.944,248.508 C2056.256,248.508 2058.942,240.4 2058.942,230.4 C2058.942,220.4 2056.256,212.294 2052.944,212.294 C2049.63,212.294 2046.946,220.4 2046.946,230.4" id="Fill-38" fill="#2065BF"></path>
            <path d="M2046.946,334.09 C2046.946,344.09 2049.63,352.196 2052.944,352.196 C2056.256,352.196 2058.942,344.09 2058.942,334.09 C2058.942,324.09 2056.256,315.982 2052.944,315.982 C2049.63,315.982 2046.946,324.09 2046.946,334.09" id="Fill-39" fill="#2065BF"></path>
            <path d="M1799.738,590.226 C1799.738,595.554 1764.03,599.874 1719.982,599.874 C1675.934,599.874 1640.226,595.554 1640.226,590.226 C1640.226,584.894 1675.934,580.574 1719.982,580.574 C1764.03,580.574 1799.738,584.894 1799.738,590.226" id="Fill-40" fill="#C1D6F2"></path>
            <path d="M1761.488,390.758 C1761.858,390.442 1762.218,390.12 1762.566,389.79 C1765.414,387.104 1768.426,384.564 1770.67,381.32 C1771.678,379.866 1772.518,378.296 1773.64,376.928 C1774.762,375.56 1776.236,374.38 1777.976,374.066 C1777.336,375.876 1776.226,377.514 1774.782,378.78 C1778.258,376.496 1781.574,373.972 1784.702,371.23 C1785.046,371.374 1785.156,371.802 1785.206,372.172 C1785.456,374.004 1785.356,375.886 1784.912,377.682 C1784.698,378.548 1784.4,379.406 1783.87,380.124 C1783.304,380.894 1782.502,381.46 1781.68,381.95 C1779.386,383.314 1776.21,384.036 1774.604,386.168 C1773.838,387.186 1773.2,387.538 1772.098,389.53 C1770.444,392.524 1768.768,395.506 1767.094,398.49 C1765.214,401.846 1760.738,409.734 1756.352,410.488 C1753.914,410.906 1752.188,410.294 1751.108,408.07 C1750.022,405.832 1751.114,403.58 1752.354,401.424 C1754.206,398.2 1758.734,393.14 1761.488,390.758" id="Fill-41" fill="#EBA76C"></path>
            <path d="M1758.344,409.064 C1758.28,409.246 1758.204,409.426 1758.118,409.598 C1757.514,410.804 1756.496,411.716 1755.488,412.586 C1749.528,417.722 1743.092,422.334 1736.19,426.168 C1733.052,427.908 1729.818,429.492 1726.488,430.89 C1723.99,431.936 1721.264,432.896 1718.472,432.264 C1716.912,431.914 1714.882,430.86 1714.084,429.304 C1713.326,427.826 1714.078,426.108 1714.948,424.984 C1715.732,423.976 1716.77,423.208 1717.8,422.458 C1727.856,415.13 1738.454,408.312 1750.386,404.252 C1751.674,403.812 1753.008,403.406 1754.412,403.498 C1755.818,403.588 1757.326,404.278 1758.088,405.548 C1758.74,406.632 1758.74,407.948 1758.344,409.064" id="Fill-42" fill="#EBA76C"></path>
            <path d="M1715.612,409.352 C1714.988,410.758 1714.034,412.238 1712.522,412.544 C1712.034,412.642 1710.728,412.544 1709.34,412.344 C1709.008,412.3 1708.666,412.246 1708.336,412.19 C1706.94,411.95 1705.65,411.636 1705.238,411.346 C1704.32,410.702 1702.688,408.008 1702.54,407.636 C1702.5,407.538 1702.448,407.426 1702.388,407.308 C1702.274,407.07 1702.118,406.798 1701.956,406.508 C1701.454,405.622 1700.854,404.574 1700.854,403.924 C1700.854,399.2 1702.85,397.96 1704.606,395.65 C1706.362,393.348 1708.908,391.726 1711.642,390.762 C1713.12,390.242 1714.914,389.834 1716.462,390.288 C1717.846,390.688 1717.668,391.694 1717.738,392.936 C1718.06,398.568 1717.928,404.126 1715.612,409.352" id="Fill-43" fill="#EBA76C"></path>
            <path d="M1711.422,420.032 C1707.998,423.724 1702.53,425.384 1697.632,424.214 C1696.236,423.88 1694.872,423.332 1693.434,423.268 C1695.422,421.986 1696.434,419.614 1696.886,417.294 C1697.396,414.702 1697.328,411.986 1696.632,409.436 C1696.494,408.926 1695.33,406.734 1695.866,406.332 C1696.322,405.994 1698.882,407.106 1699.618,407.088 C1700.434,407.07 1701.2,406.824 1701.956,406.508 C1702.08,406.454 1702.206,406.398 1702.33,406.342 L1702.334,406.338 C1703.178,405.958 1704.004,405.52 1704.874,405.238 C1705.056,405.178 1705.252,405.128 1705.438,405.178 C1705.594,405.224 1705.722,405.334 1705.842,405.442 C1706.97,406.462 1708.1,407.476 1709.23,408.49 C1708.856,409.604 1708.57,410.752 1708.38,411.912 C1708.362,412.004 1708.35,412.094 1708.336,412.19 C1708.17,413.29 1708.09,414.402 1708.094,415.516 C1708.094,415.832 1708.104,416.152 1708.136,416.472 C1708.174,416.88 1708.252,417.28 1708.394,417.664 C1708.862,418.93 1710.08,419.884 1711.422,420.032" id="Fill-44" fill="#EBA76C"></path>
            <path d="M1708.336,412.19 C1708.17,413.29 1708.09,414.402 1708.094,415.516 C1708.094,415.832 1708.104,416.152 1708.136,416.472 C1707.81,416.288 1707.52,415.92 1707.284,415.712 C1706.774,415.258 1706.312,414.804 1705.85,414.306 C1704.444,412.77 1703.62,410.836 1702.898,408.922 C1702.708,408.42 1702.496,407.868 1702.388,407.308 C1702.324,406.982 1702.298,406.658 1702.33,406.342 C1702.33,406.338 1702.33,406.338 1702.33,406.336 L1702.334,406.338 C1703.586,407.662 1704.568,409.144 1705.968,410.332 C1706.686,410.944 1707.536,411.474 1708.38,411.912 C1708.464,411.96 1708.548,412 1708.632,412.044 C1708.862,412.158 1709.106,412.246 1709.34,412.344 C1709.008,412.3 1708.666,412.246 1708.336,412.19" id="Fill-45" fill="#E17D27"></path>
            <path d="M1704.654,410.81 C1705.566,410.05 1706.452,409.244 1707.156,408.286 C1708.848,405.98 1709.326,402.998 1710.744,400.514 C1711.656,398.914 1712.96,397.538 1714.508,396.54 C1715.796,395.708 1717.256,395.13 1718.402,394.114 C1720.15,392.564 1720.954,390.148 1720.94606,387.814 C1720.938,385.48 1720.198,383.208 1719.27,381.064 C1718.386,382.052 1716.994,382.386 1715.68,382.562 C1712.056,383.05 1708.366,382.726 1704.726,383.064 C1701.084,383.406 1697.292,384.554 1694.916,387.334 C1692.4,390.282 1691.964,394.44 1691.892,398.314 C1691.856,400.272 1691.884,402.242 1692.272,404.158 C1692.778,406.652 1693.896,409.022 1695.502,410.994 C1698.176,414.278 1701.748,413.232 1704.654,410.81" id="Fill-46" fill="#3C69BA"></path>
            <path d="M1711.614,399.666 C1711.32,399.196 1710.946,398.748 1710.442,398.514 C1709.936,398.282 1709.28,398.31 1708.886,398.7 C1708.578,399.002 1708.476,399.468 1708.518,399.896 C1708.562,400.324 1708.728,400.73 1708.894,401.13 C1709.472,402.518 1710.064,403.932 1711.026,405.09 C1711.194,405.292 1711.434,405.502 1711.684,405.426 C1711.832,405.382 1711.932,405.246 1712.014,405.114 C1712.014,404.77 1712.498,404.138 1712.596,403.76 C1712.732,403.238 1712.776,402.7 1712.742,402.162 C1712.706,402.172 1712.792,402.264 1712.682,402.254 C1712.148,401.642 1712.088,400.424 1711.614,399.666" id="Fill-47" fill="#EBA76C"></path>
            <path d="M1690.444,586.982 C1690.306,588.016 1690.17,589.088 1690.49,590.078 C1691.132,592.068 1693.476,593.094 1695.56,592.91 C1697.642,592.73 1699.518,591.632 1701.304,590.546 C1704.228,588.77 1707.146,586.94 1709.652,584.612 C1710.596,583.734 1711.494,582.766 1712.014,581.588 C1712.532,580.408 1712.626,578.98 1711.986,577.864 C1710.992,576.126 1708.598,575.694 1706.66,576.192 C1704.724,576.688 1703.048,577.88 1701.234,578.722 C1698.764,579.87 1697.312,580.736 1694.78,581.714 C1691.758,582.882 1690.852,583.938 1690.444,586.982" id="Fill-48" fill="#6D9AD8"></path>
            <path d="M1687.106,490.476 C1686.578,496.94 1687.73,503.406 1688.672,509.822 C1689.662,516.566 1690.426,523.342 1690.962,530.138 C1691.128,532.228 1691.272,534.336 1691.054,536.424 C1690.704,539.8 1689.426,543.004 1688.742,546.328 C1687.58,551.972 1688.148,557.808 1688.72,563.54 C1689.1,567.334 1689.478,571.13 1689.858,574.926 C1690.216,578.524 1690.582,582.152 1691.676,585.6 C1694.892,586.774 1696.692,585.472 1697.824,584.374 C1698.416,574.408 1700.026,564.506 1702.618,554.868 C1703.432,551.848 1704.342,548.848 1704.866,545.766 C1705.458,542.284 1705.552,538.74 1705.786,535.22 C1706.686,521.766 1709.672,508.356 1708.468,494.928 C1708.002,489.734 1706.914,484.622 1705.828,479.522 C1705.73,479.06 1705.616,478.57 1705.284,478.234 C1704.912,477.858 1704.35,477.76 1703.826,477.68 C1701.068,477.26 1698.308,476.842 1695.548,476.422 C1693.876,476.166 1691.67,475.36 1690.338,476.774 C1689.03,478.162 1688.77,481.276 1688.346,483.06 C1687.766,485.5 1687.306,487.974 1687.106,490.476" id="Fill-49" fill="#F2A71D"></path>
            <path d="M1717.876,592.464 C1717.694,593.55 1717.512,594.674 1717.806,595.734 C1718.406,597.908 1720.882,599.12 1723.134,599.028 C1725.388,598.938 1727.466,597.856 1729.456,596.8 C1732.566,595.15 1735.68,593.498 1738.638,591.59 C1740.362,590.476 1742.1,589.196 1742.966,587.336 C1743.832,585.478 1743.488,582.904 1741.712,581.88 C1739.786,580.768 1737.414,581.902 1735.336,582.698 C1733.1,583.554 1730.732,584 1728.378,584.444 C1725.994,584.894 1721.904,584.856 1719.824,586.06 C1718.016,587.108 1718.212,590.47 1717.876,592.464" id="Fill-50" fill="#6D9AD8"></path>
            <path d="M1703.184,502.454 C1704.544,504.488 1706.182,506.334 1707.468,508.42 C1709.222,511.268 1710.27,514.484 1711.302,517.666 C1714.128,526.378 1716.984,535.248 1717.13,544.406 C1717.234,550.818 1716.002,557.182 1715.838,563.594 C1715.73,567.858 1716.092,572.12 1716.456,576.372 C1716.828,580.732 1717.2,585.094 1717.574,589.456 C1721.122,589.792 1724.77,589.032 1727.888,587.306 C1727.288,576.516 1728.438,565.692 1730.294,555.046 C1731.192,549.902 1732.254,544.78 1732.718,539.58 C1733.57,530.04 1732.388,520.45 1731.208,510.944 C1729.744,499.148 1728.252,487.232 1724.134,476.084 C1724.412,476.84 1704.332,478.78 1702.604,478.952 C1696.198,479.592 1697.946,487.316 1698.904,491.956 C1699.672,495.68 1701.07,499.284 1703.184,502.454" id="Fill-51" fill="#F2A71D"></path>
            <path d="M1698.594,529.688 C1699.232,531.848 1699.964,533.996 1700.272,536.228 C1700.624,538.802 1700.4,541.416 1700.176,544.004 C1699.922,546.942 1699.666,549.882 1699.412,552.818 C1698.754,560.418 1698.19,568.04 1696.958,575.566 C1696.464,578.586 1697.496,581.022 1697.818,584.412 C1700.774,574.83 1702.122,565.832 1703.952,555.974 C1706.012,544.868 1706.612,533.55 1707.21,522.27 C1707.382,519.014 1707.554,515.756 1707.728,512.5 C1707.814,510.848 1707.878,509.094 1707.062,507.656 C1706.248,506.224 1704.72,505.382 1703.322,504.506 C1699.712,502.246 1697.392,498.992 1694.234,496.368 C1693.108,497.87 1694.146,501.784 1694.292,503.588 C1694.532,506.528 1694.81,509.468 1695.17,512.394 C1695.886,518.23 1696.924,524.042 1698.594,529.688" id="Fill-52" fill="#D86F13"></path>
            <path d="M1725.26,456.304 C1725.476,454.298 1725.786,452.294 1725.774,450.274 C1725.754,446.628 1724.688,443.076 1723.632,439.586 C1722.212,434.892 1720.792,430.198 1719.372,425.504 C1718.852,423.786 1718.326,422.054 1717.456,420.482 C1715.168,420.868 1712.794,420.716 1710.574,420.042 L1710.902,420.268 C1707.832,422.858 1703.758,424.216 1699.75,424.018 C1699.752,424.01 1699.754,424.004 1699.756,423.996 C1699.318,423.784 1698.576,423.85 1698.028,423.608 C1697.55,423.394 1697.028,423.106 1696.584,422.824 C1695.894,422.392 1695.086,421.43 1695.448,420.564 C1694.162,421.502 1693.242,421.814 1691.66,421.89 C1690.542,421.94 1689.172,422.036 1688.282,422.8 C1686.76,424.108 1685.926,426.11 1685.588,428.094 C1685.556,428.186 1685.524,428.278 1685.496,428.372 C1685.002,430.078 1685.146,431.9 1685.316,433.67 C1685.668,437.378 1686.108,441.088 1687.012,444.702 C1687.58,446.964 1688.328,449.186 1688.746,451.48 C1690.432,460.728 1686.64,470.338 1688.414,479.57 C1689.538,479.486 1690.468,480.362 1691.352,481.062 C1694.352,483.436 1698.31,484.268 1702.132,484.36 C1705.956,484.454 1709.766,483.882 1713.59,483.788 C1717.944,483.678 1722.81,484.024 1726.092,481.16 C1725.072,472.914 1724.37,464.564 1725.26,456.304" id="Fill-53" fill="#9EBEE6"></path>
            <path d="M1716.898,423.678 C1715.698,422.97 1714.06,423.652 1713.28,424.806 C1712.502,425.96 1712.374,427.422 1712.346,428.814 C1712.17,437.174 1714.652,445.356 1715.338,453.688 C1715.484,455.452 1715.546,457.248 1715.106,458.962 C1714.678,460.618 1713.798,462.122 1713.252,463.742 C1712.178,466.926 1712.434,470.404 1713.03,473.712 C1713.63,477.018 1714.558,480.278 1714.8,483.63 C1718.934,483.404 1723.032,482.56 1726.916,481.128 C1727.16,481.038 1727.42,480.93 1727.546,480.704 C1727.676,480.474 1727.626,480.188 1727.572,479.928 C1725.986,472.072 1726.08,463.976 1726.61,455.98 C1726.744,453.952 1726.904,451.914 1726.75,449.886 C1726.608,448.018 1726.198,446.184 1725.786,444.356 C1724.79,439.938 1723.678,435.328 1720.692,431.924 C1719.598,430.678 1718.274,429.624 1717.346,428.248 C1716.418,426.874 1715.95,425.006 1716.764,423.56 C1717.14,424.128 1717.514,424.696 1717.89,425.262" id="Fill-54" fill="#5885C7"></path>
            <path d="M1711.856,424.516 C1712.778,423.206 1713.962,422.104 1715.136,421.014 C1716.064,420.152 1716.994,419.29 1717.922,418.428 C1718.764,417.646 1719.606,416.866 1720.512,416.16 C1721.404,415.466 1722.352,414.85 1723.3,414.234 C1724.922,413.182 1726.542,412.13 1728.164,411.076 C1733.264,415.85 1736.71,422.354 1737.796,429.254 C1735.14,430.772 1732.376,432.1 1729.53,433.226 C1726.746,434.326 1723.836,435.242 1720.844,435.318 C1717.906,435.394 1714.46,434.43 1712.01,432.74 C1709.31,430.88 1710.282,426.754 1711.856,424.516" id="Fill-55" fill="#9EBEE6"></path>
            <path d="M1708.572,416.574 C1708.768,416.778 1708.654,416.704 1708.518,416.578 C1708.534,416.578 1708.556,416.578 1708.572,416.574" id="Fill-56" fill="#5885C7"></path>
            <path d="M2224.248,602.486 C2224.248,607.816 2188.538,612.138 2144.492,612.138 C2100.444,612.138 2064.734,607.816 2064.734,602.486 C2064.734,597.156 2100.444,592.836 2144.492,592.836 C2188.538,592.836 2224.248,597.156 2224.248,602.486" id="Fill-57" fill="#C1D6F2"></path>
            <path d="M2123.946,443.232 C2124.772,443.616 2125.766,443.616 2126.66,443.612 C2128.472,443.602 2130.27,443.488 2132.034,443.038 C2134.972,442.29 2137.306,440.536 2139.88,439.032 C2140.656,438.58 2141.382,438.032 2142.158,437.59 C2142.57,437.356 2143.108,437.252 2143.434,436.908 C2142.78,436.59 2141.952,436.816 2141.244,436.488 C2139.254,435.568 2137.98,433.402 2137.362,431.404 C2137.116,430.612 2136.87,429.792 2136.66,428.968 C2136.516,428.404 2136.392,427.842 2136.296,427.288 C2136.248,427.014 2136.208,426.7 2136.184,426.364 C2136.108,425.386 2136.142,424.226 2136.424,423.386 C2136.516,423.258 2136.61,423.13 2136.698,423.002 C2136.312,423.008 2135.932,422.534 2135.554,422.524 C2135.016,422.506 2134.372,423.244 2133.982,423.574 C2132.936,424.464 2131.91,425.41 2130.538,425.746 C2128.734,426.192 2126.656,426.826 2124.82,426.466 C2125.472,427.394 2125.788,428.74 2126.002,429.894 C2126.028,430.028 2126.05,430.154 2126.072,430.284 C2126.278,431.45 2126.552,432.55 2126.508,433.742 C2126.508,433.776 2126.508,433.81 2126.504,433.846 C2126.44,435.038 2126.274,436.204 2125.966,437.354 C2125.42,439.386 2124.932,441.386 2123.946,443.232" id="Fill-58" fill="#D29026"></path>
            <path d="M2120.322,412.088 C2120.096,413.466 2119.342,414.604 2119.258,416.028 C2119.136,418.06 2119.17,420.226 2119.762,422.182 C2120.932,426.054 2123.676,430.096 2126.714,432.754 C2131.342,436.8 2135.746,429.094 2136.882,425.242 C2137.85,421.968 2138.662,417.448 2136.808,414.352 C2135.324,411.872 2133.128,409.274 2130.226,408.574 C2128.15,408.074 2125.46,408.294 2123.58,409.388 C2122.376,410.086 2121.326,412.212 2120.322,412.088" id="Fill-59" fill="#EBA76C"></path>
            <path d="M2135.232,417.628 C2132.25,413.686 2127.782,415.108 2126.02,414.862 C2122.648,414.392 2120.432,411.652 2120.112,408.442 C2119.944,406.742 2119.696,404.53 2120.228,402.942 C2121.654,403.298 2122.686,404.046 2124.316,403.73 C2126.022,403.398 2127.368,402.678 2129.16,402.612 C2132.464,402.486 2136.292,403.234 2138.532,405.828 C2141.518,409.286 2142.908,413.852 2142.792,418.392 C2142.76,419.748 2139.138,431.104 2136.72,429.456 C2135.842,428.856 2136.292,424.002 2136.188,422.876 C2136.058,421.474 2135.708,418.256 2135.232,417.628" id="Fill-60" fill="#1E3358"></path>
            <path d="M2122.028,407.936 C2119.046,407.718 2117.176,411.76 2116.91,414.516 C2116.658,417.134 2117.626,419.914 2118.538,422.312 C2119.028,423.596 2119.584,424.888 2120.296,426.04 C2120.534,426.426 2121.77,428.664 2122.344,428.604 C2123.412,428.488 2121.82,425.468 2121.63,424.976 C2120.974,423.278 2120.478,421.628 2120.298,419.836 C2120.036,417.222 2119.976,414.622 2121.18,412.208 C2122.04,410.484 2122.646,409.728 2122.028,407.936" id="Fill-61" fill="#1E3358"></path>
            <path d="M2135.284,419.49 C2135.628,418.558 2135.63,417.782 2136.376,417.122 C2136.904,416.652 2137.584,416.43 2138.128,417.066 C2139.244,418.372 2137.76,420.184 2137.148,421.322 C2136.82,421.936 2136.29,422.52 2135.992,423.116 C2135.784,422.398 2135.798,421.622 2135.654,420.906 C2135.582,420.55 2135.488,419.44 2135.284,419.49" id="Fill-62" fill="#EBA76C"></path>
            <path d="M2151.7,587.646 C2152.472,589.158 2151.588,591.91 2151.862,593.718 C2152.126,595.472 2153.362,596.822 2154.418,598.27 C2155.95,600.374 2160.348,604.34 2159.034,607.216 C2157.35,610.91 2152.796,609.362 2150.428,607.574 C2147.976,605.724 2147.228,602.57 2145.316,600.266 C2143.76,598.39 2143.682,596.832 2144.158,594.514 C2144.616,592.284 2144.576,590.032 2144.696,587.666 C2146.188,587.478 2147.804,587.898 2149.304,587.966 C2149.994,587.996 2152.014,588.114 2151.7,587.646" id="Fill-63" fill="#6190D5"></path>
            <path d="M2131.238,587.326 C2131.428,589.466 2130.758,591.742 2131.158,593.876 C2131.5,595.69 2133.18,597.776 2132.676,599.786 C2132.176,601.778 2129.604,601.854 2127.92,602.378 C2126.17,602.92 2124.988,604.072 2123.852,605.534 C2121.558,608.478 2116.078,609.31 2113.184,606.34 C2111.876,604.998 2111.596,602.532 2112.992,601.344 C2114.472,600.086 2116.65,600.164 2118.294,599.224 C2122.714,596.692 2124.966,592.682 2124.656,587.34 C2126.852,587.518 2128.82,587.906 2130.954,587.598 C2131.054,587.84 2130.99,588.068 2131.238,587.326" id="Fill-64" fill="#6190D5"></path>
            <path d="M2147.574,485.604 C2149.446,486.428 2150.448,491.224 2151.208,493.112 C2152.392,496.05 2153.192,499.242 2153.63,502.378 C2154.862,511.154 2153.616,519.876 2152.692,528.582 C2152.324,532.036 2151.662,535.482 2151.4,538.958 C2151.126,542.574 2152.114,547.14 2153.444,550.426 C2154.91,554.06 2155.734,560.556 2155.192,564.482 C2154.636,568.486 2155.018,568.858 2154.608,572.866 C2154.226,576.586 2153.826,580.34 2153.644,584.042 C2153.576,585.45 2153.416,586.81 2153.482,588.236 C2153.556,589.76 2153.144,591.16 2153.138,592.61 C2153.138,592.874 2152.922,593.08 2152.658,593.074128 C2149.52,592.988 2145.546,593.13 2142.678,592.204 C2142.562,592.166 2142.48,592.062 2142.466,591.944 C2141.7,585.364 2140.442,578.804 2139.112,572.298 C2137.056,562.22 2135.2,552.104 2133.226,542.01 C2131.382,532.586 2129.524,522.96 2128.308,513.406 C2127.734,508.892 2127.446,504.344 2127.44385,499.792 C2127.442,497.588 2127.458,495.394 2127.586,493.194 C2127.64,492.254 2127.368,490.316 2128.164,489.75 C2129.08,489.098 2132.69,489.476 2133.924,489.37 C2136.148,489.174 2138.188,488.998 2140.364,488.406 C2143.002,487.69 2145.794,486.864 2148.328,486.008 C2147.636,486.05 2146.96,486.18 2147.574,485.604" id="Fill-65" fill="#F2A71D"></path>
            <path d="M2134.82,489.752 C2134.92,489.752 2135.018,489.752 2135.112,489.756 C2135.006,489.576 2134.906,489.606 2134.82,489.752" id="Fill-66" fill="#4F4E4E"></path>
            <path d="M2112.112,518.346 C2112.112,528.196 2114.03,537.894 2116.096,547.482 C2118.206,557.286 2119.93,567.02 2121.332,576.94 C2121.862,580.694 2122.086,584.586 2122.83,588.246 C2122.97,588.938 2123.088,590.486 2123.452,591.032 C2124.136,592.064 2125.586,591.672 2126.97,591.672 C2128.148,591.672 2129.64,591.94 2130.764,591.796 C2132.35,591.594 2132.498,590.804 2132.73,589.19 C2133.618,583.064 2133.704,578.34 2133.996,573.516 C2134.228,569.644 2134.676,566.164 2134.344,562.35 C2134.324,562.1 2134.298,561.85 2134.272,561.598 C2133.568,555.35 2132.644,549.156 2131.81,542.944 C2131.468,540.396 2131.5,537.86 2131.684,535.324 C2131.896,532.216 2132.334,529.11 2132.564,525.998 C2133.428,514.354 2132.158,502.672 2134.44,491.188 C2134.528,490.742 2134.654,490.034 2134.82,489.752 C2128.644,489.742 2119.614,493.522 2114.178,489.17 C2114.302,494.14 2112.834,498.784 2112.59,503.652 C2112.348,508.506 2112.112,513.38 2112.112,518.346" id="Fill-67" fill="#F2A71D"></path>
            <path d="M2113.076,489.586 C2113.248,484.618 2113.714,479.686 2113.72,474.706 C2113.724,469.936 2113.798,465.2 2114.062,460.436 C2114.178,458.36 2114.44,456.234 2114.148,454.158 C2113.85,452.028 2113.612,449.964 2113.612,447.798 C2113.612,445.804 2113.462,441.686 2115.528,440.73 C2117.102,440.006 2118.78,439.354 2120.348,438.594 C2122.086,437.75 2124.344,436.152 2126.272,435.948 C2126.252,436.268 2126.292,436.752 2126.358,436.954 C2126.334,436.982 2126.314,437.008 2126.292,437.038 C2126.456,439.344 2128.64,440.248 2130.654,440.546 C2133.372,440.952 2135.806,440.274 2137.842,438.288 C2138.682,437.47 2139.49,436.31 2139.698,435.21 C2140.82,435.812 2142.084,435.946 2143.374,436.018 C2144.028,436.332 2144.736,436.574 2145.454,436.728 C2146.676,437.184 2147.932,437.546 2149.172,437.976 C2150.196,438.794 2151.324,439.4 2152.678,439.536 C2153.514,439.998 2154.328,440.504 2155.102,441.026 C2155.264,441.484 2155.378,441.98 2155.478,442.504 C2156.09,445.69 2156.496,448.664 2154.68,451.412 C2153.884,452.614 2149.752,459.31 2149.602,459.882 C2149.314,460.986 2149.61,462.58 2149.61,463.74 L2149.61,464.268 C2149.606,465.826 2149.596,467.39 2149.61,468.948 C2149.654,474.576 2150.644,480.104 2151.526,485.656 C2151.85,487.68 2152.198,489.726 2152.634,491.732 C2152.71,492.082 2152.79,492.426 2152.87,492.772 C2153.172,494.05 2153.766,495.854 2153.532,497.164 C2152.912,497.118 2152.036,497.442 2151.42,497.58 C2148.7,498.194 2146.116,499.462 2143.322,499.846 C2138.804,500.462 2134.136,500.672 2129.56,500.692 C2124.526,500.714 2118.384,502.002 2113.96,498.854 C2112.976,498.154 2113.292,497.108 2113.292,495.872 C2113.298,493.772 2113.006,491.692 2113.076,489.586" id="Fill-68" fill="#C4DFF8"></path>
            <path d="M2145.408,448.482 C2147.024,449.916 2150.382,448.7 2152.022,447.88 C2154.064,446.858 2155.614,444.888 2156.944,443.132 C2161.178,437.544 2165.418,432.014 2169.084,425.954 C2170.904,422.948 2173.438,420.23 2174.688,416.994 C2174.962,416.278 2174.292,414.006 2174.12,413.262 C2173.848,412.074 2172.536,412.57 2171.582,412.904 C2166.23,414.784 2162.194,419.34 2158.46,423.514 C2157.03,425.112 2155.914,426.93 2154.484,428.552 C2152.304,431.028 2150.096,433.54 2148.284,436.296 C2146.882,438.434 2145.684,441.128 2145.008,443.586 C2144.672,444.81 2144.196,446.51 2144.732,447.754 C2145.074,448.554 2145.698,448.906 2145.408,448.482" id="Fill-69" fill="#EBA76C"></path>
            <path d="M2173.372,418.196 C2174.686,417.258 2174.982,415.546 2175.348,414.094 C2176.554,409.292 2176.928,404.266 2177.49,399.308 C2177.948,395.246 2177.472,391.066 2178.314,386.972 C2179.1,383.144 2180.962,379.46 2181.396,375.53 C2181.634,373.37 2181.698,369.938 2180.566,367.614 C2180.112,366.68 2178.858,366.488 2178.142,367.242 C2177.792,367.612 2177.48,368 2177.286,368.35 C2176.804,369.224 2176.774,370.744 2176.448,371.764 C2175.826,373.728 2174.852,375.76 2174.416,377.732 C2174.108,376.864 2174.252,375.238 2174.352,373.824 C2174.382,373.392 2173.772,373.264 2173.628,373.676 C2172.98,375.556 2172.4,377.88 2172.186,379.384 C2171.91,381.324 2172.92,383.904 2172.702,385.87 C2172.32,389.338 2170.866,391.844 2169.934,395.218 C2168.396,400.78 2165.678,406.738 2166.18,412.642 C2166.306,414.12 2165.89,416.612 2167.128,417.732 C2168.002,418.524 2172.038,419.148 2173.372,418.196" id="Fill-70" fill="#EBA76C"></path>
            <path d="M2111.548,463.158 C2111.5,463.104 2111.446,463.05 2111.392,462.998 C2111.352,463.144 2111.398,463.204 2111.548,463.158" id="Fill-71" fill="#4F4E4E"></path>
            <path d="M2125.86,519.958 C2126.328,525.008 2127.018,530.08 2128.736,534.888 C2130.036,538.512 2130.692,542.566 2130.87,546.392 C2130.95,548.078 2130.66,549.698 2130.654,551.382 C2130.644,553.336 2130.946,555.26 2131.28,557.186 C2131.594,558.978 2132.184,560.662 2132.832,562.352 C2133.268,563.49 2133.594,564.736 2134.28,565.754 C2134.262,564.632 2134.296,563.492 2134.344,562.35 C2134.324,562.1 2134.298,561.85 2134.272,561.598 C2133.568,555.35 2132.644,549.156 2131.81,542.944 C2131.468,540.396 2131.5,537.86 2131.684,535.324 C2131.202,533.238 2130.866,531.03 2130.654,528.922 C2130.438,526.768 2129.986,524.622 2129.902,522.446 C2129.82,520.392 2129.884,517.336 2129.078,515.472 C2128.414,513.938 2126.468,513.244 2125.238,512.29 C2125.108,514.8 2125.622,517.43 2125.86,519.958" id="Fill-72" fill="#D86F13"></path>
            <path d="M2165.138,431.644 C2164.47,430.794 2163.59,429.968 2162.79,429.224 C2161.9,428.394 2161.016,427.558 2160.128,426.722 C2159.614,426.236 2159.098,425.856 2158.488,425.514 C2157.82,425.138 2156.656,424.912 2156.246,424.318 C2155.786,424.64 2154.69,425.824 2153.886,426.484 C2152.648,427.504 2151.41,428.36 2150.294,429.534 C2149.016,430.882 2147.54,432.07 2146.074,433.182 C2144.248,434.566 2142.16,435.83 2139.92,436.182 C2139.584,436.876 2139.268,437.58 2138.902,438.27 C2138.538,438.962 2138.1,439.56 2137.598,440.098 C2137.596,440.15 2137.596,440.206 2137.596,440.258 C2137.568,441.364 2137.48,442.438 2137.292,443.532 C2137.096,444.686 2136.662,445.724 2137.096,446.854 C2138.052,449.356 2139.926,451.156 2141.788,453.002 C2143.948,455.144 2145.614,457.582 2147.338,460.078 C2147.582,460.43 2147.802,460.83 2148.028,461.222 C2148.152,460.272 2148.376,459.34 2148.774,458.466 C2149.89,456.004 2151.964,453.452 2154.05,451.746 C2154.252,451.58 2154.466,451.504 2154.68,451.412 C2155.482,450.14 2156.298,448.878 2157.116,447.592 C2158.532,445.362 2159.348,443.004 2160.532,440.712 C2161.298,439.228 2162.34,437.998 2163.172,436.548 C2163.77,435.506 2164.278,434.342 2164.974,433.402 C2165.568,432.602 2165.826,432.524 2165.138,431.644" id="Fill-73" fill="#C4DFF8"></path>
        </g>
    </g>
</svg>